<svg width="56" height="84" viewBox="0 0 56 84" fill="none" xmlns="http://www.w3.org/2000/svg">
<path fill-rule="evenodd" clip-rule="evenodd" d="M52.0061 42.4202C54.5416 38.2082 56 33.2744 56 28C56 12.536 43.464 0 28 0C12.536 0 0 12.536 0 28C0 33.2746 1.45846 38.2085 3.9941 42.4206L28 84L52.0061 42.4202Z" fill="#7BA6DB"/>
<circle cx="28" cy="27" r="20" fill="white"/>
<path d="M27.7455 29.564L33.2382 29.6225C32.2809 31.4562 30.5905 32.5573 28.3666 32.5573C24.9858 32.5573 22.8178 30.1011 22.8178 27.0809C22.8178 23.6921 25.0418 21.3775 28.3374 21.3775C30.0569 21.3775 31.9715 21.9978 32.7876 24.2292H37.8027C36.9867 19.6539 32.9288 17 28.2253 17C22.3941 17 18 21.2067 18 27.1933C18 32.6989 22.1968 37 28.1962 37C30.873 37 32.8728 35.9843 34.2493 34.2899L34.4466 36.6045H38V25.818H27.7455V29.564Z" fill="#7BA6DB"/>
</svg>
