<svg width="40" height="40" viewBox="0 0 40 40" fill="none" xmlns="http://www.w3.org/2000/svg">
<path d="M11.6673 31.6667C13.5083 31.6667 15.0007 30.1743 15.0007 28.3333C15.0007 26.4924 13.5083 25 11.6673 25C9.82637 25 8.33398 26.4924 8.33398 28.3333C8.33398 30.1743 9.82637 31.6667 11.6673 31.6667Z" stroke="white" stroke-width="2.5" stroke-linecap="round" stroke-linejoin="round"/>
<path d="M28.3333 31.6667C30.1743 31.6667 31.6667 30.1743 31.6667 28.3333C31.6667 26.4924 30.1743 25 28.3333 25C26.4924 25 25 26.4924 25 28.3333C25 30.1743 26.4924 31.6667 28.3333 31.6667Z" stroke="white" stroke-width="2.5" stroke-linecap="round" stroke-linejoin="round"/>
<path d="M8.33333 28.334H5V10.0007C5 9.55862 5.17559 9.1347 5.48816 8.82214C5.80072 8.50958 6.22464 8.33398 6.66667 8.33398H21.6667V28.334H15H25M31.6667 28.334H35V18.334M35 18.334H21.6667M35 18.334L30 10.0007H21.6667" stroke="white" stroke-width="2.5" stroke-linecap="round" stroke-linejoin="round"/>
</svg>
