<svg width="40" height="40" viewBox="0 0 40 40" fill="none" xmlns="http://www.w3.org/2000/svg">
<path d="M25 30C27.7614 30 30 27.7614 30 25C30 22.2386 27.7614 20 25 20C22.2386 20 20 22.2386 20 25C20 27.7614 22.2386 30 25 30Z" stroke="white" stroke-width="2.75" stroke-linecap="round" stroke-linejoin="round"/>
<path d="M21.666 29.166V36.666L24.9993 34.166L28.3327 36.666V29.166" stroke="white" stroke-width="2.75" stroke-linecap="round" stroke-linejoin="round"/>
<path d="M16.6667 31.6673H8.33333C7.44928 31.6673 6.60143 31.3161 5.97631 30.691C5.35119 30.0659 5 29.218 5 28.334V11.6673C5 9.83398 6.5 8.33398 8.33333 8.33398H31.6667C32.5507 8.33398 33.3986 8.68517 34.0237 9.31029C34.6488 9.93542 35 10.7833 35 11.6673V28.334C34.9994 28.9185 34.8451 29.4926 34.5526 29.9987C34.26 30.5048 33.8396 30.925 33.3333 31.2173" stroke="white" stroke-width="2.75" stroke-linecap="round" stroke-linejoin="round"/>
<path d="M10 15H30" stroke="white" stroke-width="2.75" stroke-linecap="round" stroke-linejoin="round"/>
<path d="M10 20H15" stroke="white" stroke-width="2.75" stroke-linecap="round" stroke-linejoin="round"/>
<path d="M10 25H13.3333" stroke="white" stroke-width="2.75" stroke-linecap="round" stroke-linejoin="round"/>
</svg>
