<svg width="26" height="26" viewBox="0 0 26 26" fill="none" xmlns="http://www.w3.org/2000/svg">
<path d="M13.0005 10.172L22.1934 0.979079C22.5839 0.588554 23.217 0.588555 23.6076 0.97908L25.0214 2.39287C25.4119 2.78339 25.4119 3.41656 25.0214 3.80708L15.8285 13L25.0214 22.1929C25.4119 22.5834 25.4119 23.2166 25.0214 23.6071L23.6076 25.0209C23.217 25.4114 22.5839 25.4114 22.1934 25.0209L13.0005 15.828L3.80757 25.0209C3.41704 25.4114 2.78388 25.4114 2.39335 25.0209L0.979568 23.6071C0.589043 23.2166 0.589043 22.5834 0.979568 22.1929L10.1725 13L0.979568 3.80708C0.589044 3.41656 0.589043 2.78339 0.979568 2.39287L2.39335 0.979079C2.78388 0.588555 3.41704 0.588555 3.80757 0.979079L13.0005 10.172Z" fill="#1B1E23"/>
</svg>
