<svg width="40" height="40" viewBox="0 0 40 40" fill="none" xmlns="http://www.w3.org/2000/svg">
<path d="M11.7301 7.5C10.0872 8.58594 8.67421 9.98477 7.57178 11.6167" stroke="#FFF" stroke-width="2.5" stroke-linecap="round" stroke-linejoin="round"/>
<path d="M5.31057 17.015C4.92708 18.945 4.92708 20.9317 5.31057 22.8617" stroke="#FFF" stroke-width="2.5" stroke-linecap="round" stroke-linejoin="round"/>
<path d="M7.5 28.2699C8.58594 29.9128 9.98477 31.3258 11.6167 32.4282" stroke="#FFF" stroke-width="2.5" stroke-linecap="round" stroke-linejoin="round"/>
<path d="M17.0151 34.6899C18.9408 35.0717 20.9228 35.0717 22.8485 34.6899" stroke="#FFF" stroke-width="2.5" stroke-linecap="round" stroke-linejoin="round"/>
<path d="M28.27 32.4996C29.9129 31.4137 31.3259 30.0148 32.4284 28.3829" stroke="#FFF" stroke-width="2.5" stroke-linecap="round" stroke-linejoin="round"/>
<path d="M34.6899 22.9853C35.0734 21.0553 35.0734 19.0687 34.6899 17.1387" stroke="#FFF" stroke-width="2.5" stroke-linecap="round" stroke-linejoin="round"/>
<path d="M32.4995 11.73C31.4135 10.0871 30.0147 8.67408 28.3828 7.57166" stroke="#FFF" stroke-width="2.5" stroke-linecap="round" stroke-linejoin="round"/>
<path d="M22.9853 5.31027C21.0575 4.91577 19.0709 4.90444 17.1387 5.27694" stroke="#FFF" stroke-width="2.5" stroke-linecap="round" stroke-linejoin="round"/>
<path d="M19.9998 13.3334L16.6665 20H23.3332L19.9998 26.6667" stroke="#FFF" stroke-width="2.5" stroke-linecap="round" stroke-linejoin="round"/>
<path d="M20 35C23.9782 35 27.7936 33.4196 30.6066 30.6066C33.4196 27.7936 35 23.9782 35 20C35 16.0218 33.4196 12.2064 30.6066 9.3934C27.7936 6.58035 23.9782 5 20 5" stroke="#FFF" stroke-width="2.5" stroke-linecap="round" stroke-linejoin="round"/>
</svg>
