<svg width="40" height="40" viewBox="0 0 40 40" fill="none" xmlns="http://www.w3.org/2000/svg">
<path d="M13.3337 25.0003C13.3337 23.1594 11.8413 21.667 10.0003 21.667C8.15938 21.667 6.66699 23.1594 6.66699 25.0003V28.3337C6.66699 30.1746 8.15938 31.667 10.0003 31.667C11.8413 31.667 13.3337 30.1746 13.3337 28.3337V25.0003Z" stroke="white" stroke-width="2.5" stroke-linecap="round" stroke-linejoin="round"/>
<path d="M33.3337 25.0003C33.3337 23.1594 31.8413 21.667 30.0003 21.667C28.1594 21.667 26.667 23.1594 26.667 25.0003V28.3337C26.667 30.1746 28.1594 31.667 30.0003 31.667C31.8413 31.667 33.3337 30.1746 33.3337 28.3337V25.0003Z" stroke="white" stroke-width="2.5" stroke-linecap="round" stroke-linejoin="round"/>
<path d="M6.66699 25.0003V20.0003C6.66699 16.4641 8.07175 13.0727 10.5722 10.5722C13.0727 8.07175 16.4641 6.66699 20.0003 6.66699C23.5365 6.66699 26.9279 8.07175 29.4284 10.5722C31.9289 13.0727 33.3337 16.4641 33.3337 20.0003V25.0003" stroke="white" stroke-width="2.5" stroke-linecap="round" stroke-linejoin="round"/>
<path d="M30 31.667C30 32.9931 28.9464 34.2648 27.0711 35.2025C25.1957 36.1402 22.6522 36.667 20 36.667" stroke="white" stroke-width="2.5" stroke-linecap="round" stroke-linejoin="round"/>
</svg>
