<svg width="32" height="32" viewBox="0 0 32 32" fill="none" xmlns="http://www.w3.org/2000/svg">
<path d="M21.3335 5.33337H10.6668C7.72131 5.33337 5.3335 7.72119 5.3335 10.6667V21.3334C5.3335 24.2789 7.72131 26.6667 10.6668 26.6667H21.3335C24.279 26.6667 26.6668 24.2789 26.6668 21.3334V10.6667C26.6668 7.72119 24.279 5.33337 21.3335 5.33337Z" stroke="currentColor" stroke-width="2" stroke-linecap="round" stroke-linejoin="round"/>
<path d="M16 20C18.2091 20 20 18.2091 20 16C20 13.7909 18.2091 12 16 12C13.7909 12 12 13.7909 12 16C12 18.2091 13.7909 20 16 20Z" stroke="currentColor" stroke-width="2" stroke-linecap="round" stroke-linejoin="round"/>
<path d="M22 10V10.001" stroke="currentColor" stroke-width="2" stroke-linecap="round" stroke-linejoin="round"/>
</svg>
