<svg width="40" height="40" viewBox="0 0 40 40" fill="none" xmlns="http://www.w3.org/2000/svg">
<path d="M11.666 25H28.3327V31.6667C28.3327 32.5507 27.9815 33.3986 27.3564 34.0237C26.7312 34.6488 25.8834 35 24.9993 35H14.9993C14.1153 35 13.2674 34.6488 12.6423 34.0237C12.0172 33.3986 11.666 32.5507 11.666 31.6667V25Z" stroke="#FFF" stroke-width="2.5" stroke-linecap="round" stroke-linejoin="round"/>
<path d="M20 15C20 12.3478 18.9464 9.8043 17.0711 7.92893C15.1957 6.05357 12.6522 5 10 5H5V8.33333C5 10.9855 6.05357 13.529 7.92893 15.4044C9.8043 17.2798 12.3478 18.3333 15 18.3333H20" stroke="#FFF" stroke-width="2.5" stroke-linecap="round" stroke-linejoin="round"/>
<path d="M20 18.3337C20 15.6816 21.0536 13.138 22.9289 11.2627C24.8043 9.38731 27.3478 8.33374 30 8.33374H35V10.0004C35 12.6526 33.9464 15.1961 32.0711 17.0715C30.1957 18.9468 27.6522 20.0004 25 20.0004H20" stroke="#FFF" stroke-width="2.5" stroke-linecap="round" stroke-linejoin="round"/>
<path d="M20 25V15" stroke="#FFF" stroke-width="2.5" stroke-linecap="round" stroke-linejoin="round"/>
<path d="M5.41683 35H34.5835" stroke="#FFF" stroke-width="2.5" stroke-linecap="round" stroke-linejoin="round"/>
</svg>
