<svg width="95" height="95" viewBox="0 0 95 95" fill="none" xmlns="http://www.w3.org/2000/svg">
<path d="M67.2915 83.125H27.7082C25.6085 83.125 23.5949 82.2909 22.1102 80.8063C20.6256 79.3216 19.7915 77.308 19.7915 75.2083V19.7917C19.7915 17.692 20.6256 15.6784 22.1102 14.1937C23.5949 12.7091 25.6085 11.875 27.7082 11.875H55.4165H66.2082C71.1787 11.875 75.2082 15.9044 75.2082 20.875V31.6667V75.2083C75.2082 77.308 74.3741 79.3216 72.8894 80.8063C71.4048 82.2909 69.3911 83.125 67.2915 83.125Z" stroke="#1B1E23" stroke-width="3.53846" stroke-linecap="round" stroke-linejoin="round"/>
<path d="M35.1085 46.3369L59.8911 46.3369" stroke="#1B1E23" stroke-width="3" stroke-linecap="round" stroke-linejoin="round"/>
<path d="M35.1085 54.7285L59.8911 54.7285" stroke="#1B1E23" stroke-width="3" stroke-linecap="round" stroke-linejoin="round"/>
<path d="M35 63H50" stroke="#1B1E23" stroke-width="3" stroke-linecap="round" stroke-linejoin="round"/>
<path d="M55.7609 63.1191L59.7192 63.1191" stroke="#1B1E23" stroke-width="3" stroke-linecap="round" stroke-linejoin="round"/>
<path d="M41.3042 30.8154L53.1792 30.8154" stroke="#1B1E23" stroke-width="3" stroke-linecap="round" stroke-linejoin="round"/>
</svg>
