<svg width="40" height="40" viewBox="0 0 40 40" fill="none" xmlns="http://www.w3.org/2000/svg">
<mask id="path-1-inside-1" fill="white">
<path d="M32.0161 13.0625C32.5542 12.7518 33.2464 12.9347 33.5159 13.4945C34.8934 16.3562 35.3311 19.5917 34.7488 22.7335C34.098 26.2453 32.2154 29.4095 29.4398 31.6572C26.6642 33.9048 23.1777 35.0884 19.6073 34.9949C16.037 34.9014 12.6172 33.537 9.96304 31.1472C7.30886 28.7573 5.59451 25.4989 5.12833 21.9579C4.66215 18.4169 5.47474 14.8258 7.41994 11.8304C9.36515 8.83506 12.3153 6.63208 15.7398 5.6177C18.8035 4.71018 22.067 4.80733 25.0571 5.87814C25.642 6.08763 25.8962 6.75695 25.6435 7.32456C25.3908 7.89216 24.727 8.14232 24.1393 7.94059C21.6414 7.08316 18.9287 7.01973 16.3788 7.77505C13.468 8.63726 10.9604 10.5098 9.30695 13.0559C7.65353 15.6019 6.96283 18.6544 7.35908 21.6642C7.75533 24.674 9.21253 27.4437 11.4686 29.4751C13.7246 31.5065 16.6315 32.6662 19.6662 32.7456C22.701 32.8251 25.6646 31.8191 28.0238 29.9086C30.3831 27.9981 31.9833 25.3085 32.5365 22.3235C33.0211 19.7086 32.6745 17.0174 31.5607 14.6228C31.2986 14.0595 31.478 13.3732 32.0161 13.0625Z"/>
</mask>
<path d="M31.5607 14.6228L33.8274 13.5684L31.5607 14.6228ZM33.5159 13.4945L31.2633 14.5788L33.5159 13.4945ZM31.2633 14.5788C32.4112 16.9635 32.7759 19.6598 32.2907 22.2779L37.207 23.1891C37.8863 19.5236 37.3756 15.7489 35.7685 12.4102L31.2633 14.5788ZM32.2907 22.2779C31.7483 25.2044 30.1795 27.8413 27.8665 29.7143L31.0131 33.6001C34.2513 30.9778 36.4476 27.2862 37.207 23.1891L32.2907 22.2779ZM27.8665 29.7143C25.5535 31.5874 22.6481 32.5736 19.6728 32.4957L19.5419 37.494C23.7073 37.6031 27.7749 36.2223 31.0131 33.6001L27.8665 29.7143ZM19.6728 32.4957C16.6975 32.4178 13.8477 31.2808 11.6359 29.2893L8.29021 33.005C11.3867 35.7932 15.3765 37.3849 19.5419 37.494L19.6728 32.4957ZM11.6359 29.2893C9.42405 27.2978 7.99542 24.5824 7.60694 21.6316L2.64971 22.2842C3.19359 26.4154 5.19367 30.2169 8.29021 33.005L11.6359 29.2893ZM7.60694 21.6316C7.21846 18.6807 7.89562 15.6881 9.51662 13.192L5.32327 10.4688C3.05386 13.9634 2.10584 18.153 2.64971 22.2842L7.60694 21.6316ZM9.51662 13.192C11.1376 10.6959 13.5961 8.86006 16.4498 8.01475L15.0297 3.22065C11.0345 4.40409 7.59267 6.97424 5.32327 10.4688L9.51662 13.192ZM16.4498 8.01475C19.0029 7.2585 21.7225 7.33944 24.2142 8.23176L25.8999 3.52452C22.4115 2.27523 18.6041 2.16187 15.0297 3.22065L16.4498 8.01475ZM24.951 5.57602C21.9633 4.55046 18.7187 4.47457 15.6688 5.378L17.0888 10.1721C19.1387 9.56489 21.3196 9.61587 23.3276 10.3052L24.951 5.57602ZM15.6688 5.378C12.1872 6.40928 9.1879 8.64898 7.21028 11.6943L11.4036 14.4174C12.7329 12.3706 14.7488 10.8653 17.0888 10.1721L15.6688 5.378ZM7.21028 11.6943C5.23265 14.7395 4.40652 18.3905 4.88047 21.9905L9.83769 21.3379C9.51913 18.9182 10.0744 16.4643 11.4036 14.4174L7.21028 11.6943ZM4.88047 21.9905C5.35441 25.5905 7.09734 28.9033 9.79576 31.333L13.1414 27.6172C11.3277 25.9842 10.1562 23.7576 9.83769 21.3379L4.88047 21.9905ZM9.79576 31.333C12.4942 33.7626 15.971 35.1497 19.6008 35.2448L19.7317 30.2465C17.292 30.1826 14.9551 29.2503 13.1414 27.6172L9.79576 31.333ZM19.6008 35.2448C23.2306 35.3398 26.7753 34.1366 29.5971 31.8515L26.4505 27.9657C24.5539 29.5016 22.1714 30.3104 19.7317 30.2465L19.6008 35.2448ZM29.5971 31.8515C32.419 29.5664 34.3329 26.3494 34.9946 22.7791L30.0784 21.8679C29.6336 24.2676 28.3472 26.4299 26.4505 27.9657L29.5971 31.8515ZM34.9946 22.7791C35.5743 19.6514 35.1597 16.4326 33.8274 13.5684L29.2939 15.6772C30.1893 17.6022 30.468 19.7658 30.0784 21.8679L34.9946 22.7791ZM33.8274 13.5684C34.0526 14.0525 33.9673 14.8227 33.2661 15.2276L30.7661 10.8974C28.9888 11.9236 28.5447 14.0665 29.2939 15.6772L33.8274 13.5684ZM23.3596 6.30771C23.6889 5.56808 24.4461 5.40271 24.951 5.57602L23.3276 10.3052C25.0079 10.8819 27.0926 10.2162 27.9273 8.3414L23.3596 6.30771ZM24.2142 8.23176C23.3121 7.9087 23.0728 6.95187 23.3596 6.30771L27.9273 8.3414C28.7196 6.56204 27.9719 4.26656 25.8999 3.52452L24.2142 8.23176ZM35.7685 12.4102C34.814 10.4271 32.4529 9.92356 30.7661 10.8974L33.2661 15.2276C32.6555 15.5801 31.6789 15.4422 31.2633 14.5788L35.7685 12.4102Z" fill="white" mask="url(#path-1-inside-1)"/>
<mask id="path-3-inside-2" fill="white">
<path d="M26.82 16.0625C27.358 15.7518 28.0533 15.9343 28.2945 16.5069C28.9736 18.1195 29.1711 19.9037 28.8493 21.6401C28.4588 23.7472 27.3293 25.6457 25.6639 26.9943C23.9985 28.3429 21.9066 29.053 19.7644 28.9969C17.6222 28.9408 15.5703 28.1222 13.9778 26.6883C12.3853 25.2544 11.3567 23.2993 11.077 21.1747C10.7973 19.0501 11.2848 16.8955 12.452 15.0982C13.6191 13.301 15.3892 11.9792 17.4439 11.3706C19.1372 10.869 20.9322 10.879 22.607 11.3858C23.2016 11.5658 23.4558 12.2382 23.2031 12.8058C22.9503 13.3734 22.2861 13.6186 21.6844 13.4635C20.507 13.1601 19.2621 13.1787 18.0829 13.528C16.5419 13.9844 15.2143 14.9758 14.339 16.3237C13.4636 17.6716 13.098 19.2876 13.3077 20.8811C13.5175 22.4745 14.289 23.9408 15.4834 25.0162C16.6777 26.0917 18.2167 26.7056 19.8233 26.7477C21.4299 26.7898 22.9989 26.2572 24.2479 25.2457C25.4969 24.2343 26.3441 22.8104 26.637 21.2301C26.8611 20.0209 26.7494 18.7808 26.3246 17.6416C26.1075 17.0594 26.2819 16.3732 26.82 16.0625Z"/>
</mask>
<path d="M26.3246 17.6416L23.9822 18.5151L26.3246 17.6416ZM28.2945 16.5069L25.9905 17.4772L28.2945 16.5069ZM25.9905 17.4772C26.481 18.6419 26.6236 19.9305 26.3912 21.1845L31.3074 22.0957C31.7187 19.8768 31.4663 17.5971 30.5985 15.5366L25.9905 17.4772ZM26.3912 21.1845C26.1091 22.7063 25.2933 24.0775 24.0906 25.0514L27.2372 28.9372C29.3652 27.214 30.8084 24.788 31.3074 22.0957L26.3912 21.1845ZM24.0906 25.0514C22.8878 26.0254 21.377 26.5383 19.8298 26.4978L19.699 31.4961C22.4362 31.5677 25.1092 30.6604 27.2372 28.9372L24.0906 25.0514ZM19.8298 26.4978C18.2827 26.4573 16.8008 25.866 15.6507 24.8304L12.305 28.5462C14.3399 30.3784 16.9617 31.4244 19.699 31.4961L19.8298 26.4978ZM15.6507 24.8304C14.5005 23.7948 13.7576 22.3828 13.5556 20.8484L8.59838 21.501C8.95579 24.2158 10.2701 26.714 12.305 28.5462L15.6507 24.8304ZM13.5556 20.8484C13.3536 19.314 13.7057 17.7578 14.5486 16.4598L10.3553 13.7366C8.86397 16.0331 8.24098 18.7863 8.59838 21.501L13.5556 20.8484ZM14.5486 16.4598C15.3916 15.1619 16.67 14.2072 18.1539 13.7677L16.7338 8.97357C14.1084 9.75126 11.8466 11.4402 10.3553 13.7366L14.5486 16.4598ZM18.1539 13.7677C19.3768 13.4054 20.6732 13.4126 21.8828 13.7786L23.3311 8.993C21.1912 8.34535 18.8976 8.33265 16.7338 8.97357L18.1539 13.7677ZM22.3082 11.0426C20.6948 10.6268 18.9888 10.6523 17.3729 11.1309L18.7929 15.925C19.5353 15.7051 20.3191 15.6934 21.0606 15.8844L22.3082 11.0426ZM17.3729 11.1309C15.2611 11.7564 13.4418 13.115 12.2423 14.9621L16.4357 17.6853C16.9868 16.8366 17.8227 16.2124 18.7929 15.925L17.3729 11.1309ZM12.2423 14.9621C11.0428 16.8092 10.5417 19.0238 10.8291 21.2074L15.7864 20.5547C15.6543 19.5515 15.8845 18.534 16.4357 17.6853L12.2423 14.9621ZM10.8291 21.2074C11.1166 23.391 12.1738 25.4004 13.8105 26.8741L17.1562 23.1584C16.4042 22.4812 15.9184 21.558 15.7864 20.5547L10.8291 21.2074ZM13.8105 26.8741C15.4473 28.3478 17.5562 29.1892 19.7579 29.2468L19.8887 24.2485C18.8772 24.2221 17.9082 23.8355 17.1562 23.1584L13.8105 26.8741ZM19.7579 29.2468C21.9596 29.3045 24.1096 28.5746 25.8212 27.1886L22.6746 23.3029C21.8882 23.9397 20.9003 24.275 19.8887 24.2485L19.7579 29.2468ZM25.8212 27.1886C27.5328 25.8026 28.6937 23.8513 29.0951 21.6857L24.1788 20.7745C23.9944 21.7695 23.461 22.666 22.6746 23.3029L25.8212 27.1886ZM29.0951 21.6857C29.4022 20.0286 29.2492 18.3293 28.667 16.7681L23.9822 18.5151C24.2497 19.2324 24.3199 20.0132 24.1788 20.7745L29.0951 21.6857ZM28.667 16.7681C28.7435 16.9731 28.7598 17.2111 28.6865 17.459C28.6089 17.7214 28.4152 18.0282 28.07 18.2276L25.57 13.8974C23.7642 14.94 23.4295 17.0331 23.9822 18.5151L28.667 16.7681ZM20.9192 11.789C21.0813 11.4248 21.3662 11.2001 21.6191 11.0955C21.858 10.9967 22.0964 10.988 22.3082 11.0426L21.0606 15.8844C22.5922 16.2791 24.6388 15.7275 25.4869 13.8227L20.9192 11.789ZM21.8828 13.7786C20.8339 13.4612 20.6499 12.3938 20.9192 11.789L25.4869 13.8227C26.2616 12.0827 25.5694 9.67041 23.3311 8.993L21.8828 13.7786ZM30.5985 15.5366C29.6908 13.3814 27.2194 12.9451 25.57 13.8974L28.07 18.2276C27.4966 18.5586 26.4158 18.4872 25.9905 17.4772L30.5985 15.5366Z" fill="white" mask="url(#path-3-inside-2)"/>
<circle cx="20" cy="20" r="2" fill="white"/>
<path d="M31.4756 7.0127L20.1559 19.8662" stroke="white" stroke-width="2.3" stroke-linecap="round" stroke-linejoin="round"/>
<path d="M31.4756 3.79395L31.6404 6.8013L34.6478 6.63647" stroke="white" stroke-width="2.3" stroke-linecap="round" stroke-linejoin="round"/>
</svg>
