<svg width="40" height="40" viewBox="0 0 40 40" fill="none" xmlns="http://www.w3.org/2000/svg">
<path d="M20 23.333C22.7614 23.333 25 21.0944 25 18.333C25 15.5716 22.7614 13.333 20 13.333C17.2386 13.333 15 15.5716 15 18.333C15 21.0944 17.2386 23.333 20 23.333Z" stroke="white" stroke-width="2.5" stroke-linecap="round" stroke-linejoin="round"/>
<path d="M29.4287 27.7612L22.357 34.8328C21.732 35.4572 20.8846 35.808 20.0012 35.808C19.1177 35.808 18.2704 35.4572 17.6453 34.8328L10.572 27.7612C8.70737 25.8965 7.43756 23.5207 6.92314 20.9343C6.40873 18.3479 6.67281 15.667 7.682 13.2307C8.69119 10.7944 10.4002 8.71208 12.5928 7.24702C14.7854 5.78197 17.3633 5 20.0003 5C22.6374 5 25.2152 5.78197 27.4079 7.24702C29.6005 8.71208 31.3095 10.7944 32.3187 13.2307C33.3278 15.667 33.5919 18.3479 33.0775 20.9343C32.5631 23.5207 31.2933 25.8965 29.4287 27.7612V27.7612Z" stroke="white" stroke-width="2.5" stroke-linecap="round" stroke-linejoin="round"/>
</svg>
