<svg width="40" height="40" viewBox="0 0 40 40" fill="none" xmlns="http://www.w3.org/2000/svg">
<path d="M11.6666 16.6665H16.6666V11.6665L10.8333 5.83313C12.6993 4.94192 14.7958 4.65114 16.8339 5.00083C18.8721 5.35053 20.7517 6.32349 22.214 7.78575C23.6762 9.24801 24.6492 11.1276 24.9989 13.1658C25.3486 15.204 25.0578 17.3004 24.1666 19.1665L34.1666 29.1665C34.8296 29.8295 35.2021 30.7288 35.2021 31.6665C35.2021 32.6041 34.8296 33.5034 34.1666 34.1665C33.5035 34.8295 32.6043 35.202 31.6666 35.202C30.7289 35.202 29.8296 34.8295 29.1666 34.1665L19.1666 24.1665C17.3005 25.0577 15.2041 25.3485 13.1659 24.9988C11.1278 24.6491 9.24813 23.6761 7.78587 22.2138C6.32362 20.7516 5.35065 18.872 5.00096 16.8338C4.65126 14.7956 4.94204 12.6992 5.83325 10.8331L11.6666 16.6665Z" stroke="#FFF" stroke-width="2.5" stroke-linecap="round" stroke-linejoin="round"/>
</svg>
