<svg width="87" height="68" viewBox="0 0 87 68" fill="none" xmlns="http://www.w3.org/2000/svg">
<g clip-path="url(#clip0)">
<path fill-rule="evenodd" clip-rule="evenodd" d="M62.2402 24.9614H86.2975V32.5601H80.1198V42.7878H68.3875V32.5829H62.2402V24.9842V24.9614ZM14.9237 53.5854C13.1622 53.5794 11.4745 52.877 10.2289 51.6314C8.98332 50.3858 8.2809 48.6982 8.27489 46.9366V27.355C8.27489 24.9504 8.98793 22.5998 10.3238 20.6005C11.6598 18.6012 13.5585 17.0429 15.7801 16.1227C18.0016 15.2025 20.4462 14.9617 22.8045 15.4308C25.1629 15.8999 27.3292 17.0579 29.0295 18.7582C30.7298 20.4585 31.8877 22.6248 32.3568 24.9831C32.826 27.3415 32.5852 29.7861 31.665 32.0076C30.7448 34.2291 29.1865 36.1279 27.1872 37.4638C25.1878 38.7998 22.8373 39.5128 20.4327 39.5128C19.3788 39.5115 18.3294 39.3761 17.3096 39.1101V31.861C18.3214 32.5419 19.5318 32.8653 20.7483 32.7796C21.9649 32.694 23.118 32.2043 24.0245 31.3884C24.9309 30.5725 25.5388 29.4771 25.7514 28.2761C25.9641 27.0752 25.7694 25.8377 25.1983 24.7601C24.6271 23.6825 23.7123 22.8266 22.5991 22.3284C21.4859 21.8302 20.2382 21.7183 19.0541 22.0103C17.87 22.3024 16.8174 22.9817 16.0636 23.9404C15.3097 24.8991 14.8978 26.0822 14.8933 27.3018V53.5854H14.9237ZM73.8661 9.11834C66.8678 5.31903 54.71 0 41.1313 0C19.7564 0 0 10.4709 0 34.1482C0 57.8255 18.4874 68 40.0143 68C55.2647 68 67.8328 62.0427 73.8661 58.5625V45.0218C69.4817 47.6281 61.4272 51.5946 53.0079 51.5946C29.0723 51.5946 29.9689 16.9449 52.2481 16.8537C60.6065 16.8157 68.7751 20.1515 73.8509 22.7503L73.8661 9.11834Z" fill="#1B1E23"/>
</g>
<defs>
<clipPath id="clip0">
<rect width="86.2975" height="68" fill="white"/>
</clipPath>
</defs>
</svg>
