<svg width="40" height="40" viewBox="0 0 40 40" fill="none" xmlns="http://www.w3.org/2000/svg">
<path d="M15 23.333L25 13.333" stroke="white" stroke-width="2.5" stroke-linecap="round" stroke-linejoin="round"/>
<path d="M15.8333 14.9997C16.2936 14.9997 16.6667 14.6266 16.6667 14.1663C16.6667 13.7061 16.2936 13.333 15.8333 13.333C15.3731 13.333 15 13.7061 15 14.1663C15 14.6266 15.3731 14.9997 15.8333 14.9997Z" fill="white" stroke="white" stroke-width="2.5" stroke-linecap="round" stroke-linejoin="round"/>
<path d="M24.1663 23.3337C24.6266 23.3337 24.9997 22.9606 24.9997 22.5003C24.9997 22.0401 24.6266 21.667 24.1663 21.667C23.7061 21.667 23.333 22.0401 23.333 22.5003C23.333 22.9606 23.7061 23.3337 24.1663 23.3337Z" fill="white" stroke="white" stroke-width="2.5" stroke-linecap="round" stroke-linejoin="round"/>
<path d="M8.33301 35V8.33333C8.33301 7.44928 8.6842 6.60143 9.30932 5.97631C9.93444 5.35119 10.7823 5 11.6663 5H28.333C29.2171 5 30.0649 5.35119 30.69 5.97631C31.3152 6.60143 31.6663 7.44928 31.6663 8.33333V35L26.6663 31.6667L23.333 35L19.9997 31.6667L16.6663 35L13.333 31.6667L8.33301 35Z" stroke="white" stroke-width="2.5" stroke-linecap="round" stroke-linejoin="round"/>
</svg>
