<svg width="95" height="95" viewBox="0 0 95 95" fill="none" xmlns="http://www.w3.org/2000/svg">
<path d="M56.7935 14.4565V26.8478C56.7935 27.6694 57.1416 28.4574 57.7613 29.0383C58.381 29.6193 59.2214 29.9457 60.0978 29.9457H73.3152" stroke="#1B1E23" stroke-width="3.53846" stroke-linecap="round" stroke-linejoin="round"/>
<path d="M67.1196 83.125H27.5363C25.4367 83.125 23.423 82.2909 21.9384 80.8063C20.4537 79.3216 19.6196 77.308 19.6196 75.2083V19.7917C19.6196 17.692 20.4537 15.6784 21.9384 14.1937C23.423 12.7091 25.4367 11.875 27.5363 11.875H55.2446L75.0363 31.6667V75.2083C75.0363 77.308 74.2022 79.3216 72.7176 80.8063C71.2329 82.2909 69.2193 83.125 67.1196 83.125Z" stroke="#1B1E23" stroke-width="3.53846" stroke-linecap="round" stroke-linejoin="round"/>
<mask id="path-3-outside-1" maskUnits="userSpaceOnUse" x="29.978" y="31.0107" width="34" height="38" fill="black">
<rect fill="white" x="29.978" y="31.0107" width="34" height="38"/>
<path d="M62.0997 44.6602H57.0402C56.9164 44.3004 56.7739 43.9475 56.6134 43.6031L60.1879 39.9709C60.3545 39.8003 60.448 39.5697 60.448 39.3294C60.448 39.089 60.3545 38.8584 60.1879 38.6878L56.4178 34.8569C56.2492 34.6889 56.0225 34.5948 55.7865 34.5948C55.5504 34.5948 55.3237 34.6889 55.1551 34.8569L51.5895 38.4891C51.2476 38.323 50.8973 38.1752 50.5402 38.0463V32.9143C50.5402 32.6746 50.4465 32.4448 50.2798 32.2754C50.113 32.1059 49.8869 32.0107 49.651 32.0107H44.3159C44.0801 32.0107 43.8539 32.1059 43.6871 32.2754C43.5204 32.4448 43.4267 32.6746 43.4267 32.9143V38.0554C43.0726 38.1812 42.7254 38.326 42.3863 38.4891L38.8118 34.8569C38.6398 34.6956 38.4144 34.6061 38.1805 34.6061C37.9465 34.6061 37.7211 34.6956 37.5491 34.8569L33.779 38.6878C33.6124 38.8584 33.5189 39.089 33.5189 39.3294C33.5189 39.5697 33.6124 39.8003 33.779 39.9709L37.3535 43.6031C37.193 43.9475 37.0505 44.3004 36.9267 44.6602H31.8672C31.6314 44.6602 31.4052 44.7554 31.2385 44.9248C31.0717 45.0943 30.978 45.3241 30.978 45.5637V50.9849C30.978 51.2246 31.0717 51.4544 31.2385 51.6238C31.4052 51.7933 31.6314 51.8885 31.8672 51.8885H36.9178C37.0512 52.2499 37.1935 52.6113 37.3535 52.9546L33.779 56.5778C33.6152 56.7501 33.5229 56.9798 33.5211 57.2193C33.5246 57.4585 33.6166 57.6876 33.779 57.8608L37.5491 61.6918C37.717 61.8611 37.944 61.9561 38.1805 61.9561C38.417 61.9561 38.6439 61.8611 38.8118 61.6918L42.3863 58.0596C42.7237 58.2265 43.0712 58.3714 43.4267 58.4933V64.5379C43.4267 65.4964 43.8014 66.4157 44.4685 67.0935C45.1355 67.7713 46.0402 68.152 46.9835 68.152C47.9268 68.152 48.8315 67.7713 49.4985 67.0935C50.1655 66.4157 50.5402 65.4964 50.5402 64.5379V58.5023C50.8982 58.3757 51.2486 58.2279 51.5895 58.0596L55.1551 61.6918C55.3271 61.853 55.5525 61.9425 55.7865 61.9425C56.0204 61.9425 56.2458 61.853 56.4178 61.6918L60.1879 57.8608C60.3545 57.6902 60.448 57.4596 60.448 57.2193C60.448 56.979 60.3545 56.7484 60.1879 56.5778L56.6134 52.9546C56.779 52.6082 56.9245 52.2522 57.0491 51.8885H62.0997C62.3355 51.8885 62.5617 51.7933 62.7285 51.6238C62.8952 51.4544 62.9889 51.2246 62.9889 50.9849V45.5637C62.9889 45.3241 62.8952 45.0943 62.7285 44.9248C62.5617 44.7554 62.3355 44.6602 62.0997 44.6602ZM49.1175 51.1656C49.0078 51.2505 48.9187 51.3597 48.857 51.485C48.7954 51.6104 48.7628 51.7484 48.7618 51.8885V64.5379C48.7618 65.0172 48.5745 65.4768 48.241 65.8157C47.9075 66.1546 47.4551 66.345 46.9835 66.345C46.5118 66.345 46.0595 66.1546 45.726 65.8157C45.3924 65.4768 45.2051 65.0172 45.2051 64.5379V51.8885C45.2041 51.7484 45.1716 51.6104 45.1099 51.485C45.0483 51.3597 44.9591 51.2505 44.8494 51.1656C44.4568 50.867 44.1293 50.4889 43.8876 50.0553C43.6459 49.6216 43.4952 49.1418 43.4451 48.6461C43.395 48.1503 43.4465 47.6494 43.5963 47.1749C43.7462 46.7004 43.9912 46.2625 44.3159 45.889V48.2743C44.3152 48.4414 44.3606 48.6054 44.4471 48.7476C44.5335 48.8897 44.6575 49.0044 44.8049 49.0785L46.5478 49.982C46.67 50.0455 46.8051 50.0794 46.9424 50.0809C47.0797 50.0825 47.2155 50.0517 47.3391 49.991L49.1531 49.0875C49.302 49.012 49.4273 48.896 49.5152 48.7525C49.6031 48.6089 49.6501 48.4434 49.651 48.2743V45.889C49.9757 46.2625 50.2207 46.7004 50.3706 47.1749C50.5205 47.6494 50.5719 48.1503 50.5218 48.6461C50.4717 49.1418 50.321 49.6216 50.0793 50.0553C49.8376 50.4889 49.5102 50.867 49.1175 51.1656ZM61.2105 50.0814H56.3911C56.1962 50.0816 56.0068 50.1473 55.8524 50.2682C55.698 50.3891 55.5873 50.5585 55.5375 50.75C55.3468 51.4245 55.0845 52.0759 54.755 52.6926C54.661 52.8633 54.624 53.0604 54.6496 53.2543C54.6753 53.4482 54.7622 53.6284 54.8973 53.7678L58.3029 57.2193L55.7865 59.7763L52.3897 56.3158C52.2525 56.1785 52.0752 56.0902 51.8844 56.0642C51.6936 56.0381 51.4996 56.0756 51.3316 56.1712C51.0737 56.3158 50.807 56.4332 50.5402 56.5507V52.3131C51.2066 51.7081 51.7128 50.9427 52.0122 50.0872C52.3117 49.2317 52.3949 48.3134 52.2541 47.4167C52.1134 46.52 51.7533 45.6736 51.2068 44.9552C50.6603 44.2367 49.9449 43.6693 49.1264 43.3049C48.9911 43.2431 48.8428 43.2167 48.6949 43.228C48.547 43.2394 48.4043 43.2881 48.2797 43.3698C48.1551 43.4516 48.0525 43.5637 47.9815 43.6959C47.9104 43.8282 47.873 43.9764 47.8727 44.1271V47.7141L46.9568 48.1659L46.0943 47.7232V44.1271C46.094 43.9764 46.0566 43.8282 45.9855 43.6959C45.9144 43.5637 45.8119 43.4516 45.6873 43.3698C45.5626 43.2881 45.4199 43.2394 45.272 43.228C45.1241 43.2167 44.9758 43.2431 44.8405 43.3049C44.022 43.6693 43.3067 44.2367 42.7602 44.9552C42.2137 45.6736 41.8535 46.52 41.7128 47.4167C41.5721 48.3134 41.6552 49.2317 41.9547 50.0872C42.2542 50.9427 42.7603 51.7081 43.4267 52.3131V56.5507C43.1599 56.4332 42.9021 56.3067 42.6442 56.1712C42.5154 56.0926 42.3676 56.052 42.2174 56.0537C41.9815 56.0547 41.7552 56.1486 41.5861 56.3158L38.1805 59.7763L35.673 57.2193L39.0786 53.7678C39.2157 53.6277 39.3038 53.4459 39.3295 53.25C39.3552 53.0542 39.317 52.8552 39.2208 52.6836C38.884 52.0725 38.6184 51.4236 38.4294 50.75C38.3796 50.5585 38.2689 50.3891 38.1145 50.2682C37.9601 50.1473 37.7708 50.0816 37.5758 50.0814H32.7564V46.4673H37.5758C37.7694 46.4667 37.9574 46.402 38.1115 46.2829C38.2656 46.1639 38.3772 45.997 38.4294 45.8077C38.6168 45.1336 38.8825 44.4845 39.2208 43.8741C39.317 43.7024 39.3552 43.5035 39.3295 43.3076C39.3038 43.1118 39.2157 42.93 39.0786 42.7899L35.6641 39.3294L38.1805 36.7724L41.5861 40.2419C41.725 40.3794 41.9038 40.4677 42.096 40.4938C42.2882 40.5198 42.4836 40.4822 42.6531 40.3865C43.2545 40.0443 43.8931 39.7744 44.556 39.5823C44.7423 39.5292 44.9065 39.4158 45.0237 39.2593C45.1408 39.1027 45.2045 38.9116 45.2051 38.715V33.8178H48.7618V38.715C48.7607 38.9134 48.8248 39.1065 48.944 39.2637C49.0632 39.4208 49.2307 39.533 49.4198 39.5823C50.0827 39.7744 50.7213 40.0443 51.3227 40.3865C51.4922 40.4822 51.6876 40.5198 51.8798 40.4938C52.072 40.4677 52.2508 40.3794 52.3897 40.2419L55.7865 36.7724L58.3029 39.3294L54.8973 42.7899C54.7622 42.9293 54.6753 43.1095 54.6496 43.3034C54.624 43.4973 54.661 43.6944 54.755 43.8651C55.0875 44.4804 55.35 45.1321 55.5375 45.8077C55.5897 45.997 55.7014 46.1639 55.8554 46.2829C56.0095 46.402 56.1976 46.4667 56.3911 46.4673H61.2105V50.0814Z"/>
</mask>
<path d="M62.0997 44.6602H57.0402C56.9164 44.3004 56.7739 43.9475 56.6134 43.6031L60.1879 39.9709C60.3545 39.8003 60.448 39.5697 60.448 39.3294C60.448 39.089 60.3545 38.8584 60.1879 38.6878L56.4178 34.8569C56.2492 34.6889 56.0225 34.5948 55.7865 34.5948C55.5504 34.5948 55.3237 34.6889 55.1551 34.8569L51.5895 38.4891C51.2476 38.323 50.8973 38.1752 50.5402 38.0463V32.9143C50.5402 32.6746 50.4465 32.4448 50.2798 32.2754C50.113 32.1059 49.8869 32.0107 49.651 32.0107H44.3159C44.0801 32.0107 43.8539 32.1059 43.6871 32.2754C43.5204 32.4448 43.4267 32.6746 43.4267 32.9143V38.0554C43.0726 38.1812 42.7254 38.326 42.3863 38.4891L38.8118 34.8569C38.6398 34.6956 38.4144 34.6061 38.1805 34.6061C37.9465 34.6061 37.7211 34.6956 37.5491 34.8569L33.779 38.6878C33.6124 38.8584 33.5189 39.089 33.5189 39.3294C33.5189 39.5697 33.6124 39.8003 33.779 39.9709L37.3535 43.6031C37.193 43.9475 37.0505 44.3004 36.9267 44.6602H31.8672C31.6314 44.6602 31.4052 44.7554 31.2385 44.9248C31.0717 45.0943 30.978 45.3241 30.978 45.5637V50.9849C30.978 51.2246 31.0717 51.4544 31.2385 51.6238C31.4052 51.7933 31.6314 51.8885 31.8672 51.8885H36.9178C37.0512 52.2499 37.1935 52.6113 37.3535 52.9546L33.779 56.5778C33.6152 56.7501 33.5229 56.9798 33.5211 57.2193C33.5246 57.4585 33.6166 57.6876 33.779 57.8608L37.5491 61.6918C37.717 61.8611 37.944 61.9561 38.1805 61.9561C38.417 61.9561 38.6439 61.8611 38.8118 61.6918L42.3863 58.0596C42.7237 58.2265 43.0712 58.3714 43.4267 58.4933V64.5379C43.4267 65.4964 43.8014 66.4157 44.4685 67.0935C45.1355 67.7713 46.0402 68.152 46.9835 68.152C47.9268 68.152 48.8315 67.7713 49.4985 67.0935C50.1655 66.4157 50.5402 65.4964 50.5402 64.5379V58.5023C50.8982 58.3757 51.2486 58.2279 51.5895 58.0596L55.1551 61.6918C55.3271 61.853 55.5525 61.9425 55.7865 61.9425C56.0204 61.9425 56.2458 61.853 56.4178 61.6918L60.1879 57.8608C60.3545 57.6902 60.448 57.4596 60.448 57.2193C60.448 56.979 60.3545 56.7484 60.1879 56.5778L56.6134 52.9546C56.779 52.6082 56.9245 52.2522 57.0491 51.8885H62.0997C62.3355 51.8885 62.5617 51.7933 62.7285 51.6238C62.8952 51.4544 62.9889 51.2246 62.9889 50.9849V45.5637C62.9889 45.3241 62.8952 45.0943 62.7285 44.9248C62.5617 44.7554 62.3355 44.6602 62.0997 44.6602ZM49.1175 51.1656C49.0078 51.2505 48.9187 51.3597 48.857 51.485C48.7954 51.6104 48.7628 51.7484 48.7618 51.8885V64.5379C48.7618 65.0172 48.5745 65.4768 48.241 65.8157C47.9075 66.1546 47.4551 66.345 46.9835 66.345C46.5118 66.345 46.0595 66.1546 45.726 65.8157C45.3924 65.4768 45.2051 65.0172 45.2051 64.5379V51.8885C45.2041 51.7484 45.1716 51.6104 45.1099 51.485C45.0483 51.3597 44.9591 51.2505 44.8494 51.1656C44.4568 50.867 44.1293 50.4889 43.8876 50.0553C43.6459 49.6216 43.4952 49.1418 43.4451 48.6461C43.395 48.1503 43.4465 47.6494 43.5963 47.1749C43.7462 46.7004 43.9912 46.2625 44.3159 45.889V48.2743C44.3152 48.4414 44.3606 48.6054 44.4471 48.7476C44.5335 48.8897 44.6575 49.0044 44.8049 49.0785L46.5478 49.982C46.67 50.0455 46.8051 50.0794 46.9424 50.0809C47.0797 50.0825 47.2155 50.0517 47.3391 49.991L49.1531 49.0875C49.302 49.012 49.4273 48.896 49.5152 48.7525C49.6031 48.6089 49.6501 48.4434 49.651 48.2743V45.889C49.9757 46.2625 50.2207 46.7004 50.3706 47.1749C50.5205 47.6494 50.5719 48.1503 50.5218 48.6461C50.4717 49.1418 50.321 49.6216 50.0793 50.0553C49.8376 50.4889 49.5102 50.867 49.1175 51.1656ZM61.2105 50.0814H56.3911C56.1962 50.0816 56.0068 50.1473 55.8524 50.2682C55.698 50.3891 55.5873 50.5585 55.5375 50.75C55.3468 51.4245 55.0845 52.0759 54.755 52.6926C54.661 52.8633 54.624 53.0604 54.6496 53.2543C54.6753 53.4482 54.7622 53.6284 54.8973 53.7678L58.3029 57.2193L55.7865 59.7763L52.3897 56.3158C52.2525 56.1785 52.0752 56.0902 51.8844 56.0642C51.6936 56.0381 51.4996 56.0756 51.3316 56.1712C51.0737 56.3158 50.807 56.4332 50.5402 56.5507V52.3131C51.2066 51.7081 51.7128 50.9427 52.0122 50.0872C52.3117 49.2317 52.3949 48.3134 52.2541 47.4167C52.1134 46.52 51.7533 45.6736 51.2068 44.9552C50.6603 44.2367 49.9449 43.6693 49.1264 43.3049C48.9911 43.2431 48.8428 43.2167 48.6949 43.228C48.547 43.2394 48.4043 43.2881 48.2797 43.3698C48.1551 43.4516 48.0525 43.5637 47.9815 43.6959C47.9104 43.8282 47.873 43.9764 47.8727 44.1271V47.7141L46.9568 48.1659L46.0943 47.7232V44.1271C46.094 43.9764 46.0566 43.8282 45.9855 43.6959C45.9144 43.5637 45.8119 43.4516 45.6873 43.3698C45.5626 43.2881 45.4199 43.2394 45.272 43.228C45.1241 43.2167 44.9758 43.2431 44.8405 43.3049C44.022 43.6693 43.3067 44.2367 42.7602 44.9552C42.2137 45.6736 41.8535 46.52 41.7128 47.4167C41.5721 48.3134 41.6552 49.2317 41.9547 50.0872C42.2542 50.9427 42.7603 51.7081 43.4267 52.3131V56.5507C43.1599 56.4332 42.9021 56.3067 42.6442 56.1712C42.5154 56.0926 42.3676 56.052 42.2174 56.0537C41.9815 56.0547 41.7552 56.1486 41.5861 56.3158L38.1805 59.7763L35.673 57.2193L39.0786 53.7678C39.2157 53.6277 39.3038 53.4459 39.3295 53.25C39.3552 53.0542 39.317 52.8552 39.2208 52.6836C38.884 52.0725 38.6184 51.4236 38.4294 50.75C38.3796 50.5585 38.2689 50.3891 38.1145 50.2682C37.9601 50.1473 37.7708 50.0816 37.5758 50.0814H32.7564V46.4673H37.5758C37.7694 46.4667 37.9574 46.402 38.1115 46.2829C38.2656 46.1639 38.3772 45.997 38.4294 45.8077C38.6168 45.1336 38.8825 44.4845 39.2208 43.8741C39.317 43.7024 39.3552 43.5035 39.3295 43.3076C39.3038 43.1118 39.2157 42.93 39.0786 42.7899L35.6641 39.3294L38.1805 36.7724L41.5861 40.2419C41.725 40.3794 41.9038 40.4677 42.096 40.4938C42.2882 40.5198 42.4836 40.4822 42.6531 40.3865C43.2545 40.0443 43.8931 39.7744 44.556 39.5823C44.7423 39.5292 44.9065 39.4158 45.0237 39.2593C45.1408 39.1027 45.2045 38.9116 45.2051 38.715V33.8178H48.7618V38.715C48.7607 38.9134 48.8248 39.1065 48.944 39.2637C49.0632 39.4208 49.2307 39.533 49.4198 39.5823C50.0827 39.7744 50.7213 40.0443 51.3227 40.3865C51.4922 40.4822 51.6876 40.5198 51.8798 40.4938C52.072 40.4677 52.2508 40.3794 52.3897 40.2419L55.7865 36.7724L58.3029 39.3294L54.8973 42.7899C54.7622 42.9293 54.6753 43.1095 54.6496 43.3034C54.624 43.4973 54.661 43.6944 54.755 43.8651C55.0875 44.4804 55.35 45.1321 55.5375 45.8077C55.5897 45.997 55.7014 46.1639 55.8554 46.2829C56.0095 46.402 56.1976 46.4667 56.3911 46.4673H61.2105V50.0814Z" fill="#1B1E23"/>
<path d="M62.0997 44.6602H57.0402C56.9164 44.3004 56.7739 43.9475 56.6134 43.6031L60.1879 39.9709C60.3545 39.8003 60.448 39.5697 60.448 39.3294C60.448 39.089 60.3545 38.8584 60.1879 38.6878L56.4178 34.8569C56.2492 34.6889 56.0225 34.5948 55.7865 34.5948C55.5504 34.5948 55.3237 34.6889 55.1551 34.8569L51.5895 38.4891C51.2476 38.323 50.8973 38.1752 50.5402 38.0463V32.9143C50.5402 32.6746 50.4465 32.4448 50.2798 32.2754C50.113 32.1059 49.8869 32.0107 49.651 32.0107H44.3159C44.0801 32.0107 43.8539 32.1059 43.6871 32.2754C43.5204 32.4448 43.4267 32.6746 43.4267 32.9143V38.0554C43.0726 38.1812 42.7254 38.326 42.3863 38.4891L38.8118 34.8569C38.6398 34.6956 38.4144 34.6061 38.1805 34.6061C37.9465 34.6061 37.7211 34.6956 37.5491 34.8569L33.779 38.6878C33.6124 38.8584 33.5189 39.089 33.5189 39.3294C33.5189 39.5697 33.6124 39.8003 33.779 39.9709L37.3535 43.6031C37.193 43.9475 37.0505 44.3004 36.9267 44.6602H31.8672C31.6314 44.6602 31.4052 44.7554 31.2385 44.9248C31.0717 45.0943 30.978 45.3241 30.978 45.5637V50.9849C30.978 51.2246 31.0717 51.4544 31.2385 51.6238C31.4052 51.7933 31.6314 51.8885 31.8672 51.8885H36.9178C37.0512 52.2499 37.1935 52.6113 37.3535 52.9546L33.779 56.5778C33.6152 56.7501 33.5229 56.9798 33.5211 57.2193C33.5246 57.4585 33.6166 57.6876 33.779 57.8608L37.5491 61.6918C37.717 61.8611 37.944 61.9561 38.1805 61.9561C38.417 61.9561 38.6439 61.8611 38.8118 61.6918L42.3863 58.0596C42.7237 58.2265 43.0712 58.3714 43.4267 58.4933V64.5379C43.4267 65.4964 43.8014 66.4157 44.4685 67.0935C45.1355 67.7713 46.0402 68.152 46.9835 68.152C47.9268 68.152 48.8315 67.7713 49.4985 67.0935C50.1655 66.4157 50.5402 65.4964 50.5402 64.5379V58.5023C50.8982 58.3757 51.2486 58.2279 51.5895 58.0596L55.1551 61.6918C55.3271 61.853 55.5525 61.9425 55.7865 61.9425C56.0204 61.9425 56.2458 61.853 56.4178 61.6918L60.1879 57.8608C60.3545 57.6902 60.448 57.4596 60.448 57.2193C60.448 56.979 60.3545 56.7484 60.1879 56.5778L56.6134 52.9546C56.779 52.6082 56.9245 52.2522 57.0491 51.8885H62.0997C62.3355 51.8885 62.5617 51.7933 62.7285 51.6238C62.8952 51.4544 62.9889 51.2246 62.9889 50.9849V45.5637C62.9889 45.3241 62.8952 45.0943 62.7285 44.9248C62.5617 44.7554 62.3355 44.6602 62.0997 44.6602ZM49.1175 51.1656C49.0078 51.2505 48.9187 51.3597 48.857 51.485C48.7954 51.6104 48.7628 51.7484 48.7618 51.8885V64.5379C48.7618 65.0172 48.5745 65.4768 48.241 65.8157C47.9075 66.1546 47.4551 66.345 46.9835 66.345C46.5118 66.345 46.0595 66.1546 45.726 65.8157C45.3924 65.4768 45.2051 65.0172 45.2051 64.5379V51.8885C45.2041 51.7484 45.1716 51.6104 45.1099 51.485C45.0483 51.3597 44.9591 51.2505 44.8494 51.1656C44.4568 50.867 44.1293 50.4889 43.8876 50.0553C43.6459 49.6216 43.4952 49.1418 43.4451 48.6461C43.395 48.1503 43.4465 47.6494 43.5963 47.1749C43.7462 46.7004 43.9912 46.2625 44.3159 45.889V48.2743C44.3152 48.4414 44.3606 48.6054 44.4471 48.7476C44.5335 48.8897 44.6575 49.0044 44.8049 49.0785L46.5478 49.982C46.67 50.0455 46.8051 50.0794 46.9424 50.0809C47.0797 50.0825 47.2155 50.0517 47.3391 49.991L49.1531 49.0875C49.302 49.012 49.4273 48.896 49.5152 48.7525C49.6031 48.6089 49.6501 48.4434 49.651 48.2743V45.889C49.9757 46.2625 50.2207 46.7004 50.3706 47.1749C50.5205 47.6494 50.5719 48.1503 50.5218 48.6461C50.4717 49.1418 50.321 49.6216 50.0793 50.0553C49.8376 50.4889 49.5102 50.867 49.1175 51.1656ZM61.2105 50.0814H56.3911C56.1962 50.0816 56.0068 50.1473 55.8524 50.2682C55.698 50.3891 55.5873 50.5585 55.5375 50.75C55.3468 51.4245 55.0845 52.0759 54.755 52.6926C54.661 52.8633 54.624 53.0604 54.6496 53.2543C54.6753 53.4482 54.7622 53.6284 54.8973 53.7678L58.3029 57.2193L55.7865 59.7763L52.3897 56.3158C52.2525 56.1785 52.0752 56.0902 51.8844 56.0642C51.6936 56.0381 51.4996 56.0756 51.3316 56.1712C51.0737 56.3158 50.807 56.4332 50.5402 56.5507V52.3131C51.2066 51.7081 51.7128 50.9427 52.0122 50.0872C52.3117 49.2317 52.3949 48.3134 52.2541 47.4167C52.1134 46.52 51.7533 45.6736 51.2068 44.9552C50.6603 44.2367 49.9449 43.6693 49.1264 43.3049C48.9911 43.2431 48.8428 43.2167 48.6949 43.228C48.547 43.2394 48.4043 43.2881 48.2797 43.3698C48.1551 43.4516 48.0525 43.5637 47.9815 43.6959C47.9104 43.8282 47.873 43.9764 47.8727 44.1271V47.7141L46.9568 48.1659L46.0943 47.7232V44.1271C46.094 43.9764 46.0566 43.8282 45.9855 43.6959C45.9144 43.5637 45.8119 43.4516 45.6873 43.3698C45.5626 43.2881 45.4199 43.2394 45.272 43.228C45.1241 43.2167 44.9758 43.2431 44.8405 43.3049C44.022 43.6693 43.3067 44.2367 42.7602 44.9552C42.2137 45.6736 41.8535 46.52 41.7128 47.4167C41.5721 48.3134 41.6552 49.2317 41.9547 50.0872C42.2542 50.9427 42.7603 51.7081 43.4267 52.3131V56.5507C43.1599 56.4332 42.9021 56.3067 42.6442 56.1712C42.5154 56.0926 42.3676 56.052 42.2174 56.0537C41.9815 56.0547 41.7552 56.1486 41.5861 56.3158L38.1805 59.7763L35.673 57.2193L39.0786 53.7678C39.2157 53.6277 39.3038 53.4459 39.3295 53.25C39.3552 53.0542 39.317 52.8552 39.2208 52.6836C38.884 52.0725 38.6184 51.4236 38.4294 50.75C38.3796 50.5585 38.2689 50.3891 38.1145 50.2682C37.9601 50.1473 37.7708 50.0816 37.5758 50.0814H32.7564V46.4673H37.5758C37.7694 46.4667 37.9574 46.402 38.1115 46.2829C38.2656 46.1639 38.3772 45.997 38.4294 45.8077C38.6168 45.1336 38.8825 44.4845 39.2208 43.8741C39.317 43.7024 39.3552 43.5035 39.3295 43.3076C39.3038 43.1118 39.2157 42.93 39.0786 42.7899L35.6641 39.3294L38.1805 36.7724L41.5861 40.2419C41.725 40.3794 41.9038 40.4677 42.096 40.4938C42.2882 40.5198 42.4836 40.4822 42.6531 40.3865C43.2545 40.0443 43.8931 39.7744 44.556 39.5823C44.7423 39.5292 44.9065 39.4158 45.0237 39.2593C45.1408 39.1027 45.2045 38.9116 45.2051 38.715V33.8178H48.7618V38.715C48.7607 38.9134 48.8248 39.1065 48.944 39.2637C49.0632 39.4208 49.2307 39.533 49.4198 39.5823C50.0827 39.7744 50.7213 40.0443 51.3227 40.3865C51.4922 40.4822 51.6876 40.5198 51.8798 40.4938C52.072 40.4677 52.2508 40.3794 52.3897 40.2419L55.7865 36.7724L58.3029 39.3294L54.8973 42.7899C54.7622 42.9293 54.6753 43.1095 54.6496 43.3034C54.624 43.4973 54.661 43.6944 54.755 43.8651C55.0875 44.4804 55.35 45.1321 55.5375 45.8077C55.5897 45.997 55.7014 46.1639 55.8554 46.2829C56.0095 46.402 56.1976 46.4667 56.3911 46.4673H61.2105V50.0814Z" stroke="#1B1E23" stroke-width="0.4" mask="url(#path-3-outside-1)"/>
</svg>
