<svg width="40" height="40" viewBox="0 0 40 40" fill="none" xmlns="http://www.w3.org/2000/svg">
<path d="M19.9998 3.33337V14.1667L24.9998 17.0334M16.6665 6.66671L19.9998 8.33337L23.3332 6.66671H16.6665Z" stroke="#FFF" stroke-width="2.5" stroke-linecap="round" stroke-linejoin="round"/>
<path d="M34.4338 11.6669L25.0518 17.0836L25.0692 22.847M29.8803 10.4468L30.1036 14.1669L33.2137 16.2203L29.8803 10.4468Z" stroke="#FFF" stroke-width="2.5" stroke-linecap="round" stroke-linejoin="round"/>
<path d="M34.4334 28.3335L25.0515 22.9169L20.0689 25.8137M33.2133 23.7801L30.1033 25.8335L29.88 29.5536L33.2133 23.7801Z" stroke="#FFF" stroke-width="2.5" stroke-linecap="round" stroke-linejoin="round"/>
<path d="M20.0002 36.6666V25.8333L15.0002 22.9666M23.3335 33.3333L20.0002 31.6666L16.6668 33.3333H23.3335Z" stroke="#FFF" stroke-width="2.5" stroke-linecap="round" stroke-linejoin="round"/>
<path d="M5.56624 28.3331L14.9482 22.9164L14.9308 17.153M10.1197 29.5532L9.89637 25.8331L6.78633 23.7797L10.1197 29.5532Z" stroke="#FFF" stroke-width="2.5" stroke-linecap="round" stroke-linejoin="round"/>
<path d="M5.56657 11.6665L14.9485 17.0831L19.9311 14.1863M6.78665 16.2199L9.8967 14.1665L10.12 10.4464L6.78665 16.2199Z" stroke="#FFF" stroke-width="2.5" stroke-linecap="round" stroke-linejoin="round"/>
</svg>
