<svg width="40" height="40" viewBox="0 0 40 40" fill="none" xmlns="http://www.w3.org/2000/svg">
<path d="M25.7153 27.1433L28.3337 35M11.667 35L18.3337 15L11.667 35ZM21.667 15L24.1337 22.3983L21.667 15Z" stroke="white" stroke-width="2.5" stroke-linecap="round" stroke-linejoin="round"/>
<path d="M20.0003 14.9997C21.8413 14.9997 23.3337 13.5073 23.3337 11.6663C23.3337 9.82539 21.8413 8.33301 20.0003 8.33301C18.1594 8.33301 16.667 9.82539 16.667 11.6663C16.667 13.5073 18.1594 14.9997 20.0003 14.9997Z" stroke="white" stroke-width="2.5" stroke-linecap="round" stroke-linejoin="round"/>
<path d="M6.66699 20C9.21033 24.925 14.3137 28.3333 20.0003 28.3333C25.6837 28.3333 30.7887 24.92 33.3337 20" stroke="white" stroke-width="2.5" stroke-linecap="round" stroke-linejoin="round"/>
<path d="M20 8.33333V5" stroke="white" stroke-width="2.5" stroke-linecap="round" stroke-linejoin="round"/>
</svg>
