<svg width="40" height="40" viewBox="0 0 40 40" fill="none" xmlns="http://www.w3.org/2000/svg">
<path d="M16.6665 31.6666H31.6665C32.1975 31.6392 32.7143 31.4852 33.1736 31.2175C33.633 30.9497 34.0216 30.5759 34.3071 30.1273C34.5925 29.6787 34.7666 29.1683 34.8146 28.6388C34.8626 28.1093 34.7833 27.5759 34.5832 27.0833L33.6665 25.4166M19.9998 28.3333L16.6665 31.6666L19.9998 35V28.3333Z" stroke="#FFF" stroke-width="2.5" stroke-linecap="round" stroke-linejoin="round"/>
<path d="M13.0063 13.7802L5.50629 26.7705C5.26449 27.2441 5.13949 27.7686 5.14172 28.3003C5.14394 28.832 5.27334 29.3555 5.51909 29.827C5.76485 30.2985 6.11983 30.7044 6.55441 31.0108C6.989 31.3171 7.49056 31.5151 8.01724 31.5881L9.91894 31.6276M14.2264 18.3336L13.0063 13.7802L8.45287 15.0002L14.2264 18.3336Z" stroke="#FFF" stroke-width="2.5" stroke-linecap="round" stroke-linejoin="round"/>
<path d="M30.3272 19.5532L22.8272 6.56284C22.538 6.11666 22.1462 5.74614 21.6847 5.48222C21.2231 5.21829 20.705 5.06862 20.1738 5.04569C19.6426 5.02277 19.1136 5.12726 18.631 5.35043C18.1484 5.57361 17.7262 5.909 17.3996 6.3286L16.4145 7.95579M25.7738 18.3331L30.3272 19.5532L31.5473 14.9998L25.7738 18.3331Z" stroke="#FFF" stroke-width="2.5" stroke-linecap="round" stroke-linejoin="round"/>
</svg>
