<svg width="40" height="40" viewBox="0 0 40 40" fill="none" xmlns="http://www.w3.org/2000/svg">
<path d="M3.3335 33.3334C3.71211 33.8609 4.21345 34.2883 4.7942 34.5787C5.37496 34.8691 6.01767 35.0137 6.66683 35.0001C7.31599 35.0137 7.9587 34.8691 8.53946 34.5787C9.12021 34.2883 9.62155 33.8609 10.0002 33.3334C10.3788 32.806 10.8801 32.3786 11.4609 32.0882C12.0416 31.7978 12.6843 31.6532 13.3335 31.6668C13.9827 31.6532 14.6254 31.7978 15.2061 32.0882C15.7869 32.3786 16.2882 32.806 16.6668 33.3334C17.0454 33.8609 17.5468 34.2883 18.1275 34.5787C18.7083 34.8691 19.351 35.0137 20.0002 35.0001C20.6493 35.0137 21.292 34.8691 21.8728 34.5787C22.4535 34.2883 22.9549 33.8609 23.3335 33.3334C23.7121 32.806 24.2134 32.3786 24.7942 32.0882C25.375 31.7978 26.0177 31.6532 26.6668 31.6668C27.316 31.6532 27.9587 31.7978 28.5395 32.0882C29.1202 32.3786 29.6215 32.806 30.0002 33.3334C30.3788 33.8609 30.8801 34.2883 31.4609 34.5787C32.0416 34.8691 32.6843 35.0137 33.3335 35.0001C33.9827 35.0137 34.6254 34.8691 35.2061 34.5787C35.7869 34.2883 36.2882 33.8609 36.6668 33.3334" stroke="#FFF" stroke-width="2.5" stroke-linecap="round" stroke-linejoin="round"/>
<path d="M3.3335 26.6667C3.71211 27.1942 4.21345 27.6216 4.7942 27.9119C5.37496 28.2023 6.01767 28.347 6.66683 28.3334C7.31599 28.347 7.9587 28.2023 8.53946 27.9119C9.12021 27.6216 9.62155 27.1942 10.0002 26.6667C10.3788 26.1392 10.8801 25.7118 11.4609 25.4214C12.0416 25.1311 12.6843 24.9864 13.3335 25C13.9827 24.9864 14.6254 25.1311 15.2061 25.4214C15.7869 25.7118 16.2882 26.1392 16.6668 26.6667C17.0454 27.1942 17.5468 27.6216 18.1275 27.9119C18.7083 28.2023 19.351 28.347 20.0002 28.3334C20.6493 28.347 21.292 28.2023 21.8728 27.9119C22.4535 27.6216 22.9549 27.1942 23.3335 26.6667C23.7121 26.1392 24.2134 25.7118 24.7942 25.4214C25.375 25.1311 26.0177 24.9864 26.6668 25C27.316 24.9864 27.9587 25.1311 28.5395 25.4214C29.1202 25.7118 29.6215 26.1392 30.0002 26.6667C30.3788 27.1942 30.8801 27.6216 31.4609 27.9119C32.0416 28.2023 32.6843 28.347 33.3335 28.3334C33.9827 28.347 34.6254 28.2023 35.2061 27.9119C35.7869 27.6216 36.2882 27.1942 36.6668 26.6667" stroke="#FFF" stroke-width="2.5" stroke-linecap="round" stroke-linejoin="round"/>
<path d="M25 20V7.5C25 6.83696 25.2634 6.20107 25.7322 5.73223C26.2011 5.26339 26.837 5 27.5 5C28.163 5 28.7989 5.26339 29.2678 5.73223C29.7366 6.20107 30 6.83696 30 7.5" stroke="#FFF" stroke-width="2.5" stroke-linecap="round" stroke-linejoin="round"/>
<path d="M15 20V7.5C15 6.83696 14.7366 6.20107 14.2678 5.73223C13.7989 5.26339 13.163 5 12.5 5C11.837 5 11.2011 5.26339 10.7322 5.73223C10.2634 6.20107 10 6.83696 10 7.5" stroke="#FFF" stroke-width="2.5" stroke-linecap="round" stroke-linejoin="round"/>
<path d="M25 8.33337H15" stroke="#FFF" stroke-width="2.5" stroke-linecap="round" stroke-linejoin="round"/>
<path d="M15 16.6666H25" stroke="#FFF" stroke-width="2.5" stroke-linecap="round" stroke-linejoin="round"/>
</svg>
