<svg width="164" height="24" viewBox="0 0 164 24" fill="none" xmlns="http://www.w3.org/2000/svg">
<path d="M11.7104 15.0836L18.3105 15.1538C17.1602 17.3552 15.129 18.6772 12.4566 18.6772C8.39423 18.6772 5.78922 15.7284 5.78922 12.1025C5.78922 8.03417 8.46158 5.2554 12.4216 5.2554C14.4879 5.2554 16.7885 6 17.769 8.67896H23.7953C22.8147 3.18615 17.9388 0 12.2869 0C5.28007 0 0 5.05036 0 12.2374C0 18.8471 5.043 24.0108 12.2519 24.0108C15.4684 24.0108 17.8714 22.7914 19.5255 20.7572L19.7625 23.536H24.0324V10.5863H11.7104V15.0836Z" fill="currentColor"/>
<path d="M35.9448 23.5252H41.6667V15.3912H51.5507V10.4083H41.6667V5.52521H53.1401V0.474854H35.9448V23.5252Z" fill="currentColor"/>
<path d="M66.5097 0C59.5702 0 54.3252 5.28777 54.3252 12C54.3252 18.7122 59.5702 24.0108 66.5097 24.0108C73.4493 24.0108 78.697 18.723 78.697 12.0108C78.697 5.29856 73.4493 0 66.5097 0ZM66.5097 18.6772C62.7868 18.6772 60.1117 15.6286 60.1117 12C60.1117 8.3714 62.7868 5.32284 66.5097 5.32284C70.2327 5.32284 72.9078 8.36331 72.9078 12C72.9078 15.6367 70.2327 18.6772 66.5097 18.6772Z" fill="currentColor"/>
<path d="M101.474 8.57644C101.474 3.59352 97.6488 0.48291 91.9297 0.48291H81.876V23.5252H87.5979V16.848H91.1511L96.1268 23.5252H102.999L97.0723 15.7284C98.4146 15.086 99.5434 14.0697 100.324 12.8012C101.104 11.5328 101.502 10.0659 101.472 8.57644H101.474ZM91.8273 11.6951H87.5979V5.52518H91.8273C94.0282 5.52518 95.755 6.71223 95.755 8.57644C95.755 10.4406 94.0174 11.6951 91.8273 11.6951Z" fill="currentColor"/>
<path d="M124.119 3.18618V0.474854H104.96V5.52521H115.792L104.386 20.8139V23.5252H124.321V18.4749H113.185L124.119 3.18618Z" fill="currentColor"/>
<path d="M135.356 0.339844L125.574 23.5251H131.668L133.19 19.5593H142.936L144.496 23.5251H150.59L140.841 0.339844H135.356ZM135.086 14.6789L138.063 7.0143L141.043 14.6762L135.086 14.6789Z" fill="currentColor"/>
<path d="M160.288 5.16095C160.288 3.98199 159.431 3.27246 158.1 3.27246H155.808V8.38217H157.292V6.98199H157.93L158.755 8.38217H160.541L159.412 6.66365C159.681 6.517 159.905 6.29945 160.059 6.03457C160.213 5.7697 160.292 5.46758 160.288 5.16095ZM158.065 5.75178H157.292V4.57012H158.081C158.52 4.57012 158.774 4.82372 158.774 5.14476C158.774 5.46581 158.52 5.75178 158.065 5.75178Z" fill="currentColor"/>
<path d="M157.864 0C154.531 0 151.735 2.56295 151.735 5.98651C151.735 9.41007 154.531 11.9757 157.864 11.9757C161.196 11.9757 163.995 9.41277 163.995 5.98651C163.995 2.56025 161.204 0 157.864 0ZM157.864 10.4568C156.672 10.4605 155.528 9.9928 154.679 9.15559C153.831 8.31837 153.347 7.17939 153.332 5.98651C153.332 4.78087 153.811 3.62461 154.662 2.7721C155.513 1.91959 156.668 1.44065 157.872 1.44065C159.076 1.44065 160.23 1.91959 161.081 2.7721C161.933 3.62461 162.411 4.78087 162.411 5.98651C162.396 7.18198 161.909 8.323 161.057 9.16052C160.206 9.99804 159.057 10.4641 157.864 10.4568Z" fill="currentColor"/>
</svg>
